<svg class="alloy-svg-width" xmlns="http://www.w3.org/2000/svg" width="1920" height="1080" viewBox="0 0 1920 1080" class="alloy-svg-width"><path fill="#FFF" d="M0 239.368h28.777v162.26H0zM0 408.71h28.777v120.533H0z"/><path fill="none" class="alloy-svg-bg-style" stroke-width="5.891" stroke-linecap="square" stroke-miterlimit="10" d="M14.39 401.637V359.91"/><path fill="#FFF" d="M70.045 349.676h28.777v51.953H70.045zM70.045 408.71h28.777v10.61H70.045z"/><path fill="none" class="alloy-svg-bg-style" stroke-width="5.891" stroke-linecap="square" stroke-miterlimit="10" d="M84.434 401.637v-41.344"/><path fill="#FFF" d="M140.09 300.803h28.778V401.63H140.09zM140.09 408.71h28.778v34.706H140.09z"/><path fill="none" class="alloy-svg-bg-style" stroke-width="5.891" stroke-linecap="square" stroke-miterlimit="10" d="M154.48 401.637v-66.12"/><path fill="#FFF" d="M210.136 366.808h28.777v34.82h-28.777zM210.136 408.71h28.777v57.762h-28.777z"/><path fill="none" class="alloy-svg-bg-style" stroke-width="5.891" stroke-linecap="square" stroke-miterlimit="10" d="M224.524 431.644v-22.94"/><path fill="#FFF" d="M280.18 137.09h28.778V401.63H280.18zM280.18 408.71h28.778V1080H280.18z"/><path fill="none" class="alloy-svg-bg-style" stroke-width="5.891" stroke-linecap="square" stroke-miterlimit="10" d="M294.57 815.456V408.704"/><path fill="#FFF" d="M350.226 386.25h28.777v15.38h-28.777zM350.226 408.71h28.777v4.617h-28.777z"/><path fill="none" class="alloy-svg-bg-style" stroke-width="5.891" stroke-linecap="square" stroke-miterlimit="10" d="M364.615 401.637v-10.762"/><path fill="#FFF" d="M420.272 365.623h28.777v36.005H420.27zM420.272 408.71h28.777v38.022H420.27z"/><path fill="none" class="alloy-svg-bg-style" stroke-width="5.891" stroke-linecap="square" stroke-miterlimit="10" d="M434.66 401.637v-2.195"/><path fill="#FFF" d="M490.317 238.2h28.777v163.43h-28.777zM490.317 408.71h28.777v44.914h-28.777z"/><path fill="none" class="alloy-svg-bg-style" stroke-width="5.891" stroke-linecap="square" stroke-miterlimit="10" d="M504.706 401.637V283.122"/><path fill="#FFF" d="M560.362 135.846h28.777v265.782H560.36zM560.362 408.71h28.777v255.935H560.36z"/><path fill="none" class="alloy-svg-bg-style" stroke-width="5.891" stroke-linecap="square" stroke-miterlimit="10" d="M574.75 401.637v-9.848"/><path fill="#FFF" d="M630.408 91.147h28.777V401.63h-28.777zM630.408 408.71h28.777V891.69h-28.777z"/><path fill="none" class="alloy-svg-bg-style" stroke-width="5.891" stroke-linecap="square" stroke-miterlimit="10" d="M645.33 581.2V408.703"/><g><path fill="#FFF" d="M700.453 388.17h28.777v13.458h-28.777zM700.453 408.71h28.777v9.9h-28.777z"/><path fill="none" class="alloy-svg-bg-style" stroke-width="5.891" stroke-linecap="square" stroke-miterlimit="10" d="M714.84 398.29v3.347"/></g><g><path fill="#FFF" d="M770.498 155.27h28.777v246.36h-28.777zM770.498 408.71h28.777v365.985h-28.777z"/><path fill="none" class="alloy-svg-bg-style" stroke-width="5.891" stroke-linecap="square" stroke-miterlimit="10" d="M784.887 528.33V408.704"/></g><g><path fill="#FFF" d="M840.544 395.34h28.777v6.288h-28.776zM840.544 408.71h28.777v3.7h-28.776z"/><path fill="none" class="alloy-svg-bg-style" stroke-width="5.891" stroke-linecap="square" stroke-miterlimit="10" d="M854.932 401.637v-2.397"/></g><g><path fill="#FFF" d="M910.59 377.162h28.776v24.467H910.59zM910.59 408.71h28.776v6.22H910.59z"/><path fill="none" class="alloy-svg-bg-style" stroke-width="5.891" stroke-linecap="square" stroke-miterlimit="10" d="M924.977 401.637v-18.054"/></g><g><path fill="#FFF" d="M980.634 358.188h28.777v43.44h-28.776zM980.634 408.71h28.777v8.862h-28.776z"/><path fill="none" class="alloy-svg-bg-style" stroke-width="5.891" stroke-linecap="square" stroke-miterlimit="10" d="M995.023 401.637V367.34"/></g><g><path fill="#FFF" d="M1050.68 362.15h28.776v39.478h-28.777zM1050.68 408.71h28.776v5.67h-28.777z"/><path fill="none" class="alloy-svg-bg-style" stroke-width="5.891" stroke-linecap="square" stroke-miterlimit="10" d="M1065.068 401.637v-33.71"/></g><g><path fill="#FFF" d="M1120.725 249.136h28.777v152.492h-28.777zM1120.725 408.71h28.777v22.94h-28.777z"/><path fill="none" class="alloy-svg-bg-style" stroke-width="5.891" stroke-linecap="square" stroke-miterlimit="10" d="M1135.113 401.637V272.083"/></g><g><path fill="#FFF" d="M1190.77 395.757h28.777v5.872h-28.777zM1190.77 408.71h28.777v1.755h-28.777z"/><path fill="none" class="alloy-svg-bg-style" stroke-width="5.891" stroke-linecap="square" stroke-miterlimit="10" d="M1205.16 401.637v-4.465"/></g><g><path class="alloy-svg-active-fill" d="M1260.815 355.227h28.777v46.4h-28.777zM1260.815 408.71h28.777v192.86h-28.777z"/><path fill="none" class="alloy-svg-bg-style" stroke-width="5.891" stroke-linecap="square" stroke-miterlimit="10" d="M1274.646 555.162V408.704"/></g><g><path fill="#FFF" d="M1330.86 365.405h28.778v36.223h-28.777zM1330.86 408.71h28.778v66.098h-28.777z"/><path fill="none" class="alloy-svg-bg-style" stroke-width="5.891" stroke-linecap="square" stroke-miterlimit="10" d="M1345.25 438.578v-29.874"/></g><g><path fill="#FFF" d="M1400.906 0h28.777v401.63h-28.777zM1400.906 408.71h28.777v91.094h-28.777z"/><path fill="none" class="alloy-svg-bg-style" stroke-width="5.891" stroke-linecap="square" stroke-miterlimit="10" d="M1415.294 401.637V91.1"/></g><g><path fill="#FFF" d="M1470.95 287.77h28.778v113.858h-28.777zM1470.95 408.71h28.778v40.262h-28.777z"/><path fill="none" class="alloy-svg-bg-style" stroke-width="5.891" stroke-linecap="square" stroke-miterlimit="10" d="M1485.34 401.637V328.04"/></g><g><path fill="#FFF" d="M1540.996 264.715h28.777v136.913h-28.777zM1540.996 408.71h28.777v33.606h-28.777z"/><path fill="none" class="alloy-svg-bg-style" stroke-width="5.891" stroke-linecap="square" stroke-miterlimit="10" d="M1555.385 401.637V298.33"/></g><g><path fill="#FFF" d="M1611.042 375.312h28.777v26.316h-28.778zM1611.042 408.71h28.777v8.87h-28.778z"/><path fill="none" class="alloy-svg-bg-style" stroke-width="5.891" stroke-linecap="square" stroke-miterlimit="10" d="M1625.43 401.637v-17.45"/></g><g><path fill="#FFF" d="M1681.087 363.19h28.777v38.438h-28.777zM1681.087 408.71h28.777v16.59h-28.777z"/><path fill="none" class="alloy-svg-bg-style" stroke-width="5.891" stroke-linecap="square" stroke-miterlimit="10" d="M1695.476 401.637v-21.375"/></g><g><path fill="#FFF" d="M1751.132 377.167h28.777v24.46h-28.778zM1751.132 408.71h28.777v43.86h-28.778z"/><path fill="none" class="alloy-svg-bg-style" stroke-width="5.891" stroke-linecap="square" stroke-miterlimit="10" d="M1765.52 428.102v-19.398"/></g><g><path fill="#FFF" d="M1821.178 362.677h28.777v38.952h-28.777zM1821.178 408.71h28.777v98.916h-28.777z"/><path fill="none" class="alloy-svg-bg-style" stroke-width="5.891" stroke-linecap="square" stroke-miterlimit="10" d="M1835.566 468.667v-59.963"/></g><g><path fill="#FFF" d="M1891.223 240.74H1920v160.89h-28.777zM1891.223 408.71H1920v324.147h-28.777z"/><path fill="none" class="alloy-svg-bg-style" stroke-width="5.891" stroke-linecap="square" stroke-miterlimit="10" d="M1905.61 571.962V408.704"/></g></svg>